inDegrees=yes
name=IK-live
DataType=double
version=3
OpenSimVersion=4.1
endheader
time	pelvis_tilt	pelvis_list	pelvis_rotation	pelvis_tx	pelvis_ty	pelvis_tz	hip_flexion_r	hip_adduction_r	hip_rotation_r	knee_angle_r	ankle_angle_r	subtalar_angle_r	mtp_angle_r	hip_flexion_l	hip_adduction_l	hip_rotation_l	knee_angle_l	ankle_angle_l	subtalar_angle_l	mtp_angle_l	lumbar_extension	lumbar_bending	lumbar_rotation	neck_flex	neck_latbend	neck_rot	arm_flex_r	arm_add_r	arm_rot_r	elbow_flex_r	pro_sup_r	wrist_flex_r	wrist_dev_r	arm_flex_l	arm_add_l	arm_rot_l	elbow_flex_l	pro_sup_l	wrist_flex_l	wrist_dev_l
10.5158936	-25.02016174964459	-3.16522260641369	-203.5389901854734	0.2341366603171506	0.04326292228651554	-1.326684523481465	-22.57117169827992	-1.591976316804377	-3.241458145969817	5.899560354604904	2.451982624139334	1.987972377786656	0	-24.74788768789517	-3.395140484746916	-11.58000132048591	9.793848132074926	-0.4439473045988533	4.250290820099795	0	-21.37711699760957	1.659277491615732	3.206407148933037	0	0	0	6.799258927448952	-15.15325628808955	27.51640336120126	27.02627045721086	33.1942671616395	0	2.993093974056936	11.43939917211101	-13.46296691541548	35.91630139449723	26.93764081018961	38.11049850010121	0	2.993093974056936
10.6827155	-27.64253146338065	-2.063742427344289	-201.1247378035404	0.2341366603171506	0.04326292228651554	-1.326684523481465	-22.57117169827992	-1.591976316804377	-3.241458145969817	5.899560354604904	2.451982624139334	1.987972377786656	0	-24.74788768789517	-3.395140484746916	-11.58000132048591	9.793848132074926	-0.4439473045988533	4.250290820099795	0	-21.37711699760957	1.659277491615732	3.206407148933037	0	0	0	6.906972406965036	-15.15285955684738	27.42338262907372	27.26653365684854	33.29432806192935	0	3.020734663705594	11.53947612885862	-13.46694620313187	35.79110617859238	27.17851991916883	38.1681390139937	0	3.020734663705594
10.8496551	-12.31681162934546	10.06914443104886	-200.799444702249	0.2341366603171506	0.04326292228651554	-1.326684523481465	-22.57117169827992	-1.591976316804377	-3.241458145969817	5.899560354604904	2.451982624139334	1.987972377786656	0	-24.74788768789517	-3.395140484746916	-11.58000132048591	9.793848132074926	-0.4439473045988533	4.250290820099795	0	-21.37711699760957	1.659277491615732	3.206407148933037	0	0	0	7.014504660529765	-15.15246385261682	27.33070318468855	27.50513320350511	33.39350775158206	0	3.047993971002447	11.63939208939789	-13.47091518660456	35.66641273638218	27.4177278859626	38.22529094675592	0	3.047993971002447
11.0135196	-9.829903535349329	11.07580451726595	-208.5236912141671	0.2341366603171506	0.04326292228651554	-1.326684523481465	-22.57117169827992	-1.591976316804377	-3.241458145969817	5.899560354604904	2.451982624139334	1.987972377786656	0	-24.74788768789517	-3.395140484746916	-11.58000132048591	9.793848132074926	-0.4439473045988533	4.250290820099795	0	-21.37711699760957	1.659277491615732	3.206407148933037	0	0	0	7.121856187258202	-15.15206917273925	27.23836348955134	27.74208920878398	33.49181484748419	0	3.074877186482602	11.73914746289985	-13.47487389253238	35.54221830859361	27.65528497618942	38.28195859880565	0	3.074877186482602
11.1654636	-14.19449463689936	5.213177414613338	-210.8381535776599	0.2341366603171506	0.04326292228651554	-1.326684523481465	-22.57117169827992	-1.591976316804377	-3.241458145969817	5.899560354604904	2.451982624139334	1.987972377786656	0	-24.74788768789517	-3.395140484746916	-11.58000132048591	9.793848132074926	-0.4439473045988533	4.250290820099795	0	-21.37711699760957	1.659277491615732	3.206407148933037	0	0	0	7.229027483951225	-15.15167551456293	27.14636201518814	27.97742137318175	33.58925786005911	0	3.101389526137175	11.83874265679891	-13.47882234754481	35.4185201598407	27.891211039866	38.33814622871304	0	3.101389526137175
11.3323505	-9.484099351359223	3.784798699678197	-217.0007986435045	0.2341366603171506	0.04326292228651554	-1.326684523481465	-22.57117169827992	-1.591976316804377	-3.241458145969817	5.899560354604904	2.451982624139334	1.987972377786656	0	-24.74788768789517	-3.395140484746916	-11.58000132048591	9.793848132074926	-0.4439473045988533	4.250290820099795	0	-21.37711699760957	1.659277491615732	3.206407148933037	0	0	0	7.336019045110952	-15.15128287544297	27.05469724304832	28.21114899801798	33.68584519513971	0	3.127536132510596	11.93817807680342	-13.48276057820227	35.29531557831947	28.12552552350471	38.39385805370691	0	3.127536132510596
